<?xml version="1.0" encoding="UTF-8"?>
<svg version="1.1" xmlns="http://www.w3.org/2000/svg" width="746" height="746">
<path d="M0 0 C1.84900347 -0.00230745 3.69800602 -0.00548588 5.54700667 -0.00945449 C10.60272674 -0.01777206 15.65837091 -0.01369104 20.71409118 -0.00748205 C26.17635278 -0.00294608 31.63860157 -0.00994702 37.1008606 -0.01544189 C47.79177754 -0.02432549 58.48266636 -0.02241843 69.17358439 -0.01661661 C77.86455098 -0.01209583 86.5555097 -0.01148903 95.24647713 -0.01366425 C96.48445969 -0.01397071 97.72244224 -0.01427718 98.99793943 -0.01459293 C101.51306251 -0.0152324 104.0281856 -0.01588082 106.54330868 -0.01653811 C129.44486038 -0.02207601 152.34639937 -0.01633735 175.24794836 -0.00585292 C196.13491669 0.00363654 217.02186062 0.00278943 237.90882874 -0.0067749 C261.39746946 -0.01749472 284.88609854 -0.02168798 308.37474161 -0.01555037 C310.88080474 -0.01491329 313.38686786 -0.01428455 315.89293098 -0.01366425 C317.12588327 -0.01335569 318.35883556 -0.01304714 319.62915004 -0.01272924 C328.30648034 -0.01100435 336.98380196 -0.013913 345.66113091 -0.01862335 C356.24053791 -0.02424009 366.81991525 -0.02269908 377.39931887 -0.01206186 C382.79431426 -0.00681569 388.18926023 -0.00473044 393.58425522 -0.01136017 C398.5282044 -0.0173436 403.47205861 -0.01400512 408.41599924 -0.00340506 C410.19917 -0.00118115 411.98234888 -0.0022845 413.76551437 -0.00715664 C423.58841825 -0.03192531 432.95251816 0.36649724 442.63661194 2.25396729 C443.35621328 2.38823616 444.07581462 2.52250503 444.81722206 2.66084266 C459.8245783 5.64666284 475.01594881 11.55535051 487.63661194 20.25396729 C488.52348694 20.8585376 489.41036194 21.46310791 490.32411194 22.08599854 C502.45997902 30.6316716 514.82897742 41.21686678 523.63661194 53.25396729 C523.63661194 54.24396729 523.63661194 55.23396729 523.63661194 56.25396729 C524.29661194 56.25396729 524.95661194 56.25396729 525.63661194 56.25396729 C527.04218498 58.29219741 528.32200475 60.31173635 529.57411194 62.44146729 C530.09521545 63.30868408 530.09521545 63.30868408 530.62684631 64.19342041 C531.63661949 65.87637571 532.63675579 67.56510136 533.63661194 69.25396729 C534.18704163 70.14084229 534.73747131 71.02771729 535.30458069 71.94146729 C536.49114194 74.00142112 537.30371381 75.80946739 538.01161194 78.06646729 C538.25653381 78.84506104 538.50145569 79.62365479 538.75379944 80.42584229 C539.04512756 81.35912354 539.33645569 82.29240479 539.63661194 83.25396729 C540.03106506 84.43474854 540.42551819 85.61552979 540.83192444 86.83209229 C546.90710508 105.22064925 548.78847467 123.22344524 548.77705383 142.51904297 C548.77964084 144.2732847 548.78265493 146.02752584 548.78605723 147.78176618 C548.79409135 152.58517416 548.7959148 157.38856717 548.7966547 162.19198108 C548.79851158 167.37973601 548.80606218 172.56748329 548.81278992 177.75523376 C548.82634919 189.092533 548.83239447 200.42982868 548.83680058 211.76713467 C548.8395676 218.85402692 548.84380584 225.94091781 548.84830475 233.02780914 C548.86049527 252.67089629 548.87079437 272.31398236 548.87417984 291.95707321 C548.87439941 293.21335764 548.87461897 294.46964207 548.87484519 295.76399572 C548.87506347 297.02319741 548.87528175 298.28239909 548.87550664 299.57975841 C548.8759501 302.13115486 548.87639666 304.68255131 548.87684631 307.23394775 C548.87706774 308.49951442 548.87728917 309.76508108 548.87751731 311.06899825 C548.88146164 331.55563866 548.89890551 352.04224342 548.92220584 372.52887008 C548.94596556 393.59046543 548.95838382 414.65204293 548.95954776 435.7136519 C548.96046203 447.52742089 548.96615149 459.34114345 548.98436737 471.1548996 C548.99983098 481.21880672 549.00485217 491.28265305 548.99662927 501.34656981 C548.99274456 506.47333518 548.99354466 511.5999784 549.00768661 516.72672844 C549.13341792 565.07839344 549.13341792 565.07839344 542.76161194 585.37896729 C542.50186584 586.24312256 542.24211975 587.10727783 541.97450256 587.99761963 C535.70907749 608.39088888 525.26986899 624.78452412 510.63661194 640.25396729 C509.61567444 641.33677979 509.61567444 641.33677979 508.57411194 642.44146729 C503.12179309 648.0641711 497.27440686 653.86715637 489.63661194 656.25396729 C489.63661194 656.91396729 489.63661194 657.57396729 489.63661194 658.25396729 C463.90095829 673.66406992 437.78838933 680.76122009 407.89578247 680.63491821 C406.07887363 680.6383845 404.26196691 680.64315552 402.44506449 680.64909995 C397.50566341 680.6615064 392.56643848 680.65548729 387.62703717 680.64614129 C382.27928035 680.63930818 376.93155224 680.64985303 371.58380127 680.65808105 C361.12830565 680.67137567 350.67287487 680.66855967 340.21737678 680.65984313 C331.71443596 680.65304976 323.21151323 680.652157 314.70857048 680.65541458 C313.49533609 680.65587428 312.2821017 680.65633398 311.03210263 680.65680761 C308.56691913 680.65776685 306.10173564 680.65873949 303.63655215 680.65972538 C280.5552154 680.66826686 257.47391447 680.65846485 234.3925836 680.64232428 C214.61819555 680.62892394 194.84386036 680.63124929 175.06947327 680.64508057 C152.0685492 680.66116128 129.06765648 680.66744122 106.06672758 680.65824378 C103.61064144 680.6572882 101.15455531 680.65634508 98.69846916 680.65541458 C97.49024395 680.65495175 96.28201874 680.65448893 95.03718065 680.65401208 C86.55195085 680.65142953 78.06674106 680.65577731 69.58151436 680.66285324 C59.2300484 680.67129624 48.87865064 680.66892954 38.52719242 680.65301101 C33.25290638 680.6451656 27.97873372 680.64197252 22.7044487 680.65195847 C17.8640043 680.6609839 13.02377699 680.65584515 8.18335193 680.64002581 C6.44466921 680.63671087 4.70596764 680.6382966 2.96729732 680.64565317 C-25.87557107 680.75820363 -56.18193388 674.32716154 -79.20713806 655.94537354 C-81.32959177 654.20291035 -81.32959177 654.20291035 -83.73057556 652.86334229 C-94.4199715 646.32917147 -108.29032499 634.47315649 -112.36338806 622.25396729 C-113.02338806 622.25396729 -113.68338806 622.25396729 -114.36338806 622.25396729 C-115.68760681 620.29693604 -115.68760681 620.29693604 -117.36338806 617.25396729 C-117.71997498 616.62571045 -118.07656189 615.99745361 -118.44395447 615.35015869 C-132.43763642 590.54082605 -137.52536502 566.25401409 -137.49710083 537.8722229 C-137.49897048 536.09323155 -137.50127179 534.3142406 -137.50396615 532.53525031 C-137.51007164 527.65905907 -137.50995203 522.78288502 -137.50877178 517.90669084 C-137.50856745 512.64270658 -137.5140896 507.37872779 -137.51882935 502.11474609 C-137.52712981 491.80576512 -137.52988392 481.49678986 -137.53044172 471.18780582 C-137.53091721 462.80571071 -137.53297359 454.42361749 -137.53614235 446.04152298 C-137.5449476 422.26486803 -137.54956198 398.4882176 -137.54881188 374.71156101 C-137.54877192 373.4302084 -137.54873196 372.14885579 -137.5486908 370.82867432 C-137.54864992 369.54575291 -137.54860903 368.26283149 -137.54856692 366.94103368 C-137.54816057 346.15538246 -137.55772744 325.36974937 -137.57182916 304.58410339 C-137.58620201 283.22990041 -137.59309883 261.87570626 -137.59223539 240.52149832 C-137.59190371 228.53748091 -137.59463785 216.5534825 -137.60541344 204.56946945 C-137.61453043 194.36481099 -137.61668386 184.16018014 -137.60990401 173.95551936 C-137.60664476 168.75269461 -137.60656062 163.5499228 -137.61525726 158.34710312 C-137.62314956 153.57625471 -137.62166307 148.80550098 -137.61297313 144.03465481 C-137.61144413 142.3166329 -137.61323147 140.59860382 -137.61883321 138.88059036 C-137.73794546 99.72980831 -125.68401091 66.15075195 -98.17588806 37.75396729 C-71.35812184 11.5711621 -37.15032613 -0.10136732 0 0 Z " fill="#6A3EFE" transform="translate(167.36338806152344,30.74603271484375)"/>
<path d="M0 0 C1.41762051 2.83524101 1.33076829 5.42142805 1.54296875 8.5859375 C1.64355249 9.9863292 1.7453356 11.38663513 1.84814453 12.78686523 C1.92962738 13.90482986 1.92962738 13.90482986 2.01275635 15.04537964 C4.08893627 42.72427352 9.22329925 69.70452001 14.75 96.875 C15.04454071 98.32421341 15.04454071 98.32421341 15.34503174 99.80270386 C15.907086 102.55447562 16.47548288 105.30484102 17.046875 108.0546875 C17.21438263 108.87182724 17.38189026 109.68896698 17.55447388 110.53086853 C18.23105124 113.75084738 18.94356394 116.8333097 20 119.95361328 C21.37197321 124.13317426 22.14453677 128.36822376 22.953125 132.6875 C23.22439461 134.1191449 23.22439461 134.1191449 23.50114441 135.57971191 C24.09144049 138.71849098 24.67226153 141.85888614 25.25 145 C25.54863449 146.61902222 25.54863449 146.61902222 25.853302 148.27075195 C33.10338702 187.8337441 38.67357006 227.71532896 38 268 C38.66 267.67 39.32 267.34 40 267 C40.83603373 263.95444857 41.4105773 260.8826846 42.0234375 257.78515625 C42.77708114 254.8640335 43.59917375 252.47334787 44.76977539 249.73217773 C47.57117411 242.81196215 49.58325695 235.66109315 51.66015625 228.5 C52.09521846 227.01354335 52.53072814 225.5272176 52.96665955 224.04101562 C54.10577142 220.15327043 55.23907147 216.26385571 56.37103271 212.37402344 C57.51807628 208.43586416 58.67029477 204.49922024 59.82226562 200.5625 C61.12103209 196.12354806 62.41935472 191.68447325 63.71339417 187.24414062 C65.78013025 180.15397305 67.86083206 173.0687034 70 166 C70.66 166 71.32 166 72 166 C72.12955078 164.66001953 72.12955078 164.66001953 72.26171875 163.29296875 C73.10462515 157.4625022 75.04213514 151.91427425 76.8125 146.3125 C77.2055835 145.05953125 77.59866699 143.8065625 78.00366211 142.515625 C85.36989076 119.1338525 92.91069404 95.7767314 102 73 C102.66 73 103.32 73 104 73 C104.08507812 72.35546875 104.17015625 71.7109375 104.2578125 71.046875 C110.00711865 47.44446029 129.76598374 20.18785327 150.20166016 7.61010742 C163.43400873 -0.09828353 177.93099745 -2.45101763 192.9375 1.125 C201.69595388 4.00011556 208.04647113 7.94755961 212.94140625 15.8515625 C215.95176009 21.96113671 216.25893511 29.95575251 214.24609375 36.421875 C212.46148347 40.14506194 210.39476125 43.56001535 207 46 C205.0859375 45.94921875 205.0859375 45.94921875 203 45 C201.2890625 42.453125 201.2890625 42.453125 199.625 39.25 C195.60493509 32.02416904 191.72462928 28.256284 184 25 C181.21744858 24.56161192 178.50038731 24.52496564 175.6875 24.5625 C174.56299438 24.56733398 174.56299438 24.56733398 173.41577148 24.57226562 C168.22950721 24.70272354 164.14365288 25.54526022 159.56640625 28.125 C158 29 158 29 156 29 C156 29.66 156 30.32 156 31 C154.91203302 31.9603284 153.77658678 32.86696508 152.625 33.75 C146.32707432 39.05648121 140.68767587 46.62464826 137 54 C136.34 54 135.68 54 135 54 C134.72091797 54.72243896 134.44183594 55.44487793 134.15429688 56.18920898 C133.05752501 58.85992272 131.83937711 61.39992431 130.53125 63.97265625 C122.7214628 79.59743111 116.55116447 95.44964875 111 112 C110.42335864 113.70058241 109.84655642 115.40111028 109.26953125 117.1015625 C108.15854147 120.39428662 107.06852255 123.6932039 106 127 C105.34 127 104.68 127 104 127 C103.89015778 127.60481705 103.78031555 128.20963409 103.66714478 128.83277893 C102.48655645 135.05732135 100.90568341 141.04413155 99.0234375 147.08984375 C98.73685272 148.02479172 98.45026794 148.95973969 98.15499878 149.92301941 C97.23269764 152.92920801 96.3039161 155.93334962 95.375 158.9375 C94.10476901 163.06839669 92.83757384 167.20022273 91.5703125 171.33203125 C91.25984985 172.34259583 90.94938721 173.3531604 90.6295166 174.39434814 C87.77454333 183.70007219 85.00859372 193.03021664 82.31005859 202.38256836 C81.88587646 203.83675171 81.88587646 203.83675171 81.453125 205.3203125 C81.21754883 206.13773926 80.98197266 206.95516602 80.73925781 207.79736328 C80 210 80 210 78.97607422 212.03564453 C77.96721738 214.06597523 77.43122124 215.90262653 76.9296875 218.109375 C76.66865234 219.24052734 76.66865234 219.24052734 76.40234375 220.39453125 C76.22832031 221.17183594 76.05429687 221.94914063 75.875 222.75 C75.60236328 223.93916016 75.60236328 223.93916016 75.32421875 225.15234375 C74.87824986 227.10052366 74.43850849 229.05012731 74 231 C73.34 231 72.68 231 72 231 C71.90071701 231.57445358 71.80143402 232.14890717 71.69914246 232.74076843 C70.37080013 239.91801094 68.33629583 246.76136881 66.11328125 253.70703125 C65.54313545 255.50886116 65.54313545 255.50886116 64.96147156 257.34709167 C64.15783929 259.88349984 63.35232007 262.41920125 62.54321289 264.95385742 C61.32796452 268.76090592 60.12170791 272.57077303 58.91601562 276.38085938 C54.39850848 290.62854264 49.7788723 304.83782987 45 319 C44.34 319 43.68 319 43 319 C42.76023437 320.258125 42.52046875 321.51625 42.2734375 322.8125 C41.00659922 328.48121439 38.89410755 333.66691125 36.625 339 C36.19453369 340.02367676 35.76406738 341.04735352 35.32055664 342.10205078 C29.99304543 354.60467723 24.07692702 366.84614596 18 379 C17.34 379 16.68 379 16 379 C15.72542969 379.73476563 15.45085937 380.46953125 15.16796875 381.2265625 C12.30869103 388.01615174 7.26456106 395.90944187 1 400 C-1.14340276 399.74279167 -2.4562423 399.5437577 -4 398 C-4.10135599 395.30214203 -4.13861344 392.63522926 -4.125 389.9375 C-4.12886719 389.19822266 -4.13273437 388.45894531 -4.13671875 387.69726562 C-4.13478516 386.5922168 -4.13478516 386.5922168 -4.1328125 385.46484375 C-4.13168457 384.800896 -4.13055664 384.13694824 -4.12939453 383.45288086 C-4 381 -4 381 -3.50219727 377.49462891 C-2.774957 371.88289358 -2.83810492 366.27165089 -2.83203125 360.62109375 C-2.82779648 359.42889725 -2.82356171 358.23670074 -2.81919861 357.00837708 C-2.80932024 353.15138213 -2.80927698 349.29450536 -2.8125 345.4375 C-2.81310425 344.1215686 -2.8137085 342.80563721 -2.81433105 341.4498291 C-2.838406 322.21042235 -3.12916894 303.15946775 -5 284 C-5.14639559 282.46517633 -5.29271279 280.93034517 -5.43896484 279.39550781 C-6.98677372 263.30723867 -8.55457174 247.19699048 -11.13647461 231.23583984 C-11.89797596 226.42742641 -12.10995915 221.87119015 -12 217 C-12.66 217 -13.32 217 -14 217 C-14.06058594 216.14535156 -14.12117188 215.29070312 -14.18359375 214.41015625 C-14.30927734 212.75306641 -14.30927734 212.75306641 -14.4375 211.0625 C-14.51871094 209.96035156 -14.59992188 208.85820312 -14.68359375 207.72265625 C-14.70418084 205.08890097 -14.70418084 205.08890097 -16 204 C-16.45084497 200.32504516 -16.81858937 196.6509628 -17.16210938 192.96484375 C-17.28102539 191.78728516 -17.28102539 191.78728516 -17.40234375 190.5859375 C-17.50276978 189.51931885 -17.50276978 189.51931885 -17.60522461 188.43115234 C-17.97828483 185.82558063 -17.97828483 185.82558063 -18.96069336 182.67895508 C-20.00981772 178.96524706 -20.6581904 175.36620192 -21.2265625 171.55078125 C-21.45202725 170.06808442 -21.67770486 168.58541994 -21.90356445 167.1027832 C-22.07935532 165.93351791 -22.07935532 165.93351791 -22.25869751 164.7406311 C-24.67621077 148.71551718 -27.40444134 132.75546329 -30.3125 116.8125 C-30.57743256 115.35319565 -30.57743256 115.35319565 -30.84771729 113.8644104 C-31.34986784 111.10305039 -31.85565755 108.34238986 -32.36328125 105.58203125 C-32.58947395 104.34241638 -32.58947395 104.34241638 -32.82023621 103.07775879 C-33.39679569 99.97118895 -33.99944172 97.00167484 -35 94 C-37.64 102.58 -40.28 111.16 -43 120 C-43.66 120 -44.32 120 -45 120 C-45.14042725 120.54897949 -45.28085449 121.09795898 -45.42553711 121.66357422 C-47.87102426 130.92604778 -50.77510612 140.04416354 -53.64031982 149.18301392 C-55.20637399 154.17911954 -56.76573905 159.17730843 -58.32421875 164.17578125 C-58.63566833 165.17459824 -58.94711792 166.17341522 -59.26800537 167.20249939 C-62.18150329 176.55906803 -65.04143115 185.9314498 -67.875 195.3125 C-68.08963898 196.02303528 -68.30427795 196.73357056 -68.52542114 197.46563721 C-69.68604731 201.30969412 -70.84427216 205.15446769 -72 209 C-72.66 209 -73.32 209 -74 209 C-74.27005859 210.28865967 -74.54011719 211.57731934 -74.81835938 212.9050293 C-75.9234864 217.86787499 -77.36019875 222.67861039 -78.90625 227.51953125 C-79.1872757 228.40849594 -79.46830139 229.29746063 -79.75784302 230.21336365 C-80.66688115 233.08136569 -81.58269261 235.94713287 -82.5 238.8125 C-82.81169128 239.78932739 -83.12338257 240.76615479 -83.44451904 241.77258301 C-87.34668022 253.98745638 -91.32676585 266.168275 -95.625 278.25 C-96.01365234 279.34675049 -96.40230469 280.44350098 -96.80273438 281.57348633 C-98.58942199 286.50454003 -100.51259181 291.20619523 -102.93701172 295.85449219 C-105.29694136 300.61771261 -107.21621908 305.59120537 -109.25 310.5 C-119.04342032 333.85165616 -130.5277329 354.38468739 -148 373 C-148.51433594 373.59039063 -149.02867187 374.18078125 -149.55859375 374.7890625 C-163.41194798 389.97377805 -184.06425753 399.2128183 -204.38671875 400.28125 C-222.96111099 400.86232592 -240.40264443 397.26324544 -255.0625 385.1875 C-266.23226799 374.23048949 -271.71437037 359.46208392 -272 344 C-272.05027344 342.78828125 -272.10054687 341.5765625 -272.15234375 340.328125 C-272.66195714 319.69897486 -268.27946658 299.88060322 -256 283 C-255.2575 281.96875 -254.515 280.9375 -253.75 279.875 C-242.29965611 267.90418594 -242.29965611 267.90418594 -236 267 C-236 266.34 -236 265.68 -236 265 C-228.41793814 260.39733914 -220.70494583 259.87520363 -212 261 C-207.70252722 262.63415227 -205.52129012 265.1760253 -203.0625 269.0625 C-202 272 -202 272 -202 276 C-202.90621094 276.40089844 -203.81242187 276.80179687 -204.74609375 277.21484375 C-219.37762831 283.92683381 -227.13408217 293.09720002 -233 308 C-238.30100377 323.19146717 -238.79964974 344.24416186 -232 359 C-227.16601674 367.09955548 -221.08671756 371.97690183 -211.9609375 374.45703125 C-197.65828856 377.07981252 -184.55457322 374.1261256 -172.625 365.9765625 C-155.99090733 353.45148677 -144.55618071 335.81414323 -136 317 C-135.34 317 -134.68 317 -134 317 C-133.82984375 316.443125 -133.6596875 315.88625 -133.484375 315.3125 C-133.12085938 314.1678125 -133.12085938 314.1678125 -132.75 313 C-132.40195312 311.88625 -132.40195312 311.88625 -132.046875 310.75 C-131.16617737 308.43652563 -130.1871499 306.34789844 -129.05859375 304.15234375 C-127.14504864 300.39287306 -125.65740304 296.55740438 -124.3125 292.5625 C-123.80047551 291.07778102 -123.28738427 289.59342966 -122.7734375 288.109375 C-122.49467773 287.30177734 -122.21591797 286.49417969 -121.92871094 285.66210938 C-120.13871343 280.53115963 -118.283754 275.42341568 -116.4375 270.3125 C-113.41907488 261.9683466 -113.41907488 261.9683466 -110.453125 253.60546875 C-109.82664062 251.82076172 -109.82664062 251.82076172 -109.1875 250 C-108.85105469 249.030625 -108.51460937 248.06125 -108.16796875 247.0625 C-107.26533951 244.69573972 -106.28871525 242.48729798 -105.20947266 240.20385742 C-102.3926347 233.8837242 -100.47901286 227.28878632 -98.48046875 220.67578125 C-98.0550822 219.28386948 -97.62915196 217.89212377 -97.20271301 216.50053406 C-96.084251 212.84612501 -94.97235366 209.18975344 -93.86212158 205.53283691 C-92.10280915 199.74252951 -90.33291319 193.95543992 -88.56460953 188.16787338 C-88.13469242 186.76033128 -87.70503147 185.35271092 -87.27563095 183.94501114 C-83.61141392 171.93295425 -79.85094774 159.95356619 -76 148 C-75.34 148 -74.68 148 -74 148 C-73.87513718 146.97732529 -73.75027435 145.95465057 -73.62162781 144.90098572 C-73.04430483 141.27803216 -72.19741794 138.06296532 -71.05395508 134.58422852 C-70.65296097 133.35507217 -70.25196686 132.12591583 -69.83882141 130.85951233 C-69.39927774 129.53257084 -68.9595084 128.20570408 -68.51953125 126.87890625 C-68.0640941 125.49248142 -67.60907977 124.10591764 -67.15446472 122.71922302 C-66.20062023 119.81395854 -65.24282906 116.9100361 -64.28198242 114.00708008 C-63.06677006 110.33513052 -61.85954339 106.66062085 -60.65515614 102.98510838 C-59.7148351 100.11755839 -58.77101668 97.25116876 -57.82614708 94.38511467 C-57.38089627 93.0337756 -56.93645472 91.68216954 -56.49292946 90.33026314 C-53.248198 80.45241809 -49.71079761 70.71127889 -46 61 C-45.34 61 -44.68 61 -44 61 C-43.9175 60.319375 -43.835 59.63875 -43.75 58.9375 C-42.9671385 55.87129245 -41.65225242 53.56362971 -40.02954102 50.8671875 C-38.80603551 48.76076889 -38.80603551 48.76076889 -37.65234375 45.3125 C-31.99269512 29.87467073 -20.33817727 9.53457861 -6.0234375 0.79296875 C-4 0 -4 0 0 0 Z " fill="#010003" transform="translate(403,152)"/>
<path d="M0 0 C1.84900347 -0.00230745 3.69800602 -0.00548588 5.54700667 -0.00945449 C10.60272674 -0.01777206 15.65837091 -0.01369104 20.71409118 -0.00748205 C26.17635278 -0.00294608 31.63860157 -0.00994702 37.1008606 -0.01544189 C47.79177754 -0.02432549 58.48266636 -0.02241843 69.17358439 -0.01661661 C77.86455098 -0.01209583 86.5555097 -0.01148903 95.24647713 -0.01366425 C96.48445969 -0.01397071 97.72244224 -0.01427718 98.99793943 -0.01459293 C101.51306251 -0.0152324 104.0281856 -0.01588082 106.54330868 -0.01653811 C129.44486038 -0.02207601 152.34639937 -0.01633735 175.24794836 -0.00585292 C196.13491669 0.00363654 217.02186062 0.00278943 237.90882874 -0.0067749 C261.39746946 -0.01749472 284.88609854 -0.02168798 308.37474161 -0.01555037 C310.88080474 -0.01491329 313.38686786 -0.01428455 315.89293098 -0.01366425 C317.12588327 -0.01335569 318.35883556 -0.01304714 319.62915004 -0.01272924 C328.30648034 -0.01100435 336.98380196 -0.013913 345.66113091 -0.01862335 C356.24053791 -0.02424009 366.81991525 -0.02269908 377.39931887 -0.01206186 C382.79431426 -0.00681569 388.18926023 -0.00473044 393.58425522 -0.01136017 C398.5282044 -0.0173436 403.47205861 -0.01400512 408.41599924 -0.00340506 C410.19917 -0.00118115 411.98234888 -0.0022845 413.76551437 -0.00715664 C423.58841825 -0.03192531 432.95251816 0.36649724 442.63661194 2.25396729 C443.35621328 2.38823616 444.07581462 2.52250503 444.81722206 2.66084266 C459.8245783 5.64666284 475.01594881 11.55535051 487.63661194 20.25396729 C488.52348694 20.8585376 489.41036194 21.46310791 490.32411194 22.08599854 C502.45997902 30.6316716 514.82897742 41.21686678 523.63661194 53.25396729 C523.63661194 54.24396729 523.63661194 55.23396729 523.63661194 56.25396729 C524.29661194 56.25396729 524.95661194 56.25396729 525.63661194 56.25396729 C527.04218498 58.29219741 528.32200475 60.31173635 529.57411194 62.44146729 C530.09521545 63.30868408 530.09521545 63.30868408 530.62684631 64.19342041 C531.63661949 65.87637571 532.63675579 67.56510136 533.63661194 69.25396729 C534.18704163 70.14084229 534.73747131 71.02771729 535.30458069 71.94146729 C536.49114194 74.00142112 537.30371381 75.80946739 538.01161194 78.06646729 C538.25653381 78.84506104 538.50145569 79.62365479 538.75379944 80.42584229 C539.04512756 81.35912354 539.33645569 82.29240479 539.63661194 83.25396729 C540.03106506 84.43474854 540.42551819 85.61552979 540.83192444 86.83209229 C546.90710508 105.22064925 548.78847467 123.22344524 548.77705383 142.51904297 C548.77964084 144.2732847 548.78265493 146.02752584 548.78605723 147.78176618 C548.79409135 152.58517416 548.7959148 157.38856717 548.7966547 162.19198108 C548.79851158 167.37973601 548.80606218 172.56748329 548.81278992 177.75523376 C548.82634919 189.092533 548.83239447 200.42982868 548.83680058 211.76713467 C548.8395676 218.85402692 548.84380584 225.94091781 548.84830475 233.02780914 C548.86049527 252.67089629 548.87079437 272.31398236 548.87417984 291.95707321 C548.87439941 293.21335764 548.87461897 294.46964207 548.87484519 295.76399572 C548.87506347 297.02319741 548.87528175 298.28239909 548.87550664 299.57975841 C548.8759501 302.13115486 548.87639666 304.68255131 548.87684631 307.23394775 C548.87706774 308.49951442 548.87728917 309.76508108 548.87751731 311.06899825 C548.88146164 331.55563866 548.89890551 352.04224342 548.92220584 372.52887008 C548.94596556 393.59046543 548.95838382 414.65204293 548.95954776 435.7136519 C548.96046203 447.52742089 548.96615149 459.34114345 548.98436737 471.1548996 C548.99983098 481.21880672 549.00485217 491.28265305 548.99662927 501.34656981 C548.99274456 506.47333518 548.99354466 511.5999784 549.00768661 516.72672844 C549.13341792 565.07839344 549.13341792 565.07839344 542.76161194 585.37896729 C542.50186584 586.24312256 542.24211975 587.10727783 541.97450256 587.99761963 C535.70907749 608.39088888 525.26986899 624.78452412 510.63661194 640.25396729 C509.61567444 641.33677979 509.61567444 641.33677979 508.57411194 642.44146729 C503.12179309 648.0641711 497.27440686 653.86715637 489.63661194 656.25396729 C489.63661194 656.91396729 489.63661194 657.57396729 489.63661194 658.25396729 C463.90095829 673.66406992 437.78838933 680.76122009 407.89578247 680.63491821 C406.07887363 680.6383845 404.26196691 680.64315552 402.44506449 680.64909995 C397.50566341 680.6615064 392.56643848 680.65548729 387.62703717 680.64614129 C382.27928035 680.63930818 376.93155224 680.64985303 371.58380127 680.65808105 C361.12830565 680.67137567 350.67287487 680.66855967 340.21737678 680.65984313 C331.71443596 680.65304976 323.21151323 680.652157 314.70857048 680.65541458 C313.49533609 680.65587428 312.2821017 680.65633398 311.03210263 680.65680761 C308.56691913 680.65776685 306.10173564 680.65873949 303.63655215 680.65972538 C280.5552154 680.66826686 257.47391447 680.65846485 234.3925836 680.64232428 C214.61819555 680.62892394 194.84386036 680.63124929 175.06947327 680.64508057 C152.0685492 680.66116128 129.06765648 680.66744122 106.06672758 680.65824378 C103.61064144 680.6572882 101.15455531 680.65634508 98.69846916 680.65541458 C97.49024395 680.65495175 96.28201874 680.65448893 95.03718065 680.65401208 C86.55195085 680.65142953 78.06674106 680.65577731 69.58151436 680.66285324 C59.2300484 680.67129624 48.87865064 680.66892954 38.52719242 680.65301101 C33.25290638 680.6451656 27.97873372 680.64197252 22.7044487 680.65195847 C17.8640043 680.6609839 13.02377699 680.65584515 8.18335193 680.64002581 C6.44466921 680.63671087 4.70596764 680.6382966 2.96729732 680.64565317 C-25.87557107 680.75820363 -56.18193388 674.32716154 -79.20713806 655.94537354 C-81.32959177 654.20291035 -81.32959177 654.20291035 -83.73057556 652.86334229 C-94.4199715 646.32917147 -108.29032499 634.47315649 -112.36338806 622.25396729 C-113.02338806 622.25396729 -113.68338806 622.25396729 -114.36338806 622.25396729 C-115.68760681 620.29693604 -115.68760681 620.29693604 -117.36338806 617.25396729 C-117.71997498 616.62571045 -118.07656189 615.99745361 -118.44395447 615.35015869 C-132.43763642 590.54082605 -137.52536502 566.25401409 -137.49710083 537.8722229 C-137.49897048 536.09323155 -137.50127179 534.3142406 -137.50396615 532.53525031 C-137.51007164 527.65905907 -137.50995203 522.78288502 -137.50877178 517.90669084 C-137.50856745 512.64270658 -137.5140896 507.37872779 -137.51882935 502.11474609 C-137.52712981 491.80576512 -137.52988392 481.49678986 -137.53044172 471.18780582 C-137.53091721 462.80571071 -137.53297359 454.42361749 -137.53614235 446.04152298 C-137.5449476 422.26486803 -137.54956198 398.4882176 -137.54881188 374.71156101 C-137.54877192 373.4302084 -137.54873196 372.14885579 -137.5486908 370.82867432 C-137.54864992 369.54575291 -137.54860903 368.26283149 -137.54856692 366.94103368 C-137.54816057 346.15538246 -137.55772744 325.36974937 -137.57182916 304.58410339 C-137.58620201 283.22990041 -137.59309883 261.87570626 -137.59223539 240.52149832 C-137.59190371 228.53748091 -137.59463785 216.5534825 -137.60541344 204.56946945 C-137.61453043 194.36481099 -137.61668386 184.16018014 -137.60990401 173.95551936 C-137.60664476 168.75269461 -137.60656062 163.5499228 -137.61525726 158.34710312 C-137.62314956 153.57625471 -137.62166307 148.80550098 -137.61297313 144.03465481 C-137.61144413 142.3166329 -137.61323147 140.59860382 -137.61883321 138.88059036 C-137.73794546 99.72980831 -125.68401091 66.15075195 -98.17588806 37.75396729 C-71.35812184 11.5711621 -37.15032613 -0.10136732 0 0 Z M-41.48838806 8.37896729 C-42.50046326 8.68246094 -43.51253845 8.98595459 -44.55528259 9.29864502 C-53.36638683 12.0483534 -61.35817825 15.69557477 -69.36338806 20.25396729 C-70.31342712 20.77990479 -71.26346619 21.30584229 -72.24229431 21.84771729 C-102.07653812 38.97393969 -121.29326831 67.84672674 -130.61305583 100.41893649 C-136.14985909 121.33901296 -134.79096672 143.78439853 -134.74090302 165.22957373 C-134.7319652 170.48365859 -134.74053151 175.73772126 -134.74676514 180.99180603 C-134.7561972 191.25008902 -134.74970423 201.5083011 -134.73750219 211.76657878 C-134.7238128 223.7244944 -134.72552592 235.68239355 -134.72763553 247.64031501 C-134.73081674 268.97280995 -134.71920395 290.30527135 -134.6995697 311.63775635 C-134.68053572 332.32363911 -134.67349196 353.00948264 -134.67906189 373.69537354 C-134.68511978 396.26005018 -134.68494499 418.82470964 -134.67357606 441.38938487 C-134.67236882 443.79466096 -134.67116283 446.19993706 -134.66995811 448.60521317 C-134.66935458 449.78849356 -134.66875104 450.97177396 -134.66812921 452.19091135 C-134.66425267 460.52259456 -134.66464253 468.85427137 -134.66654396 477.18595505 C-134.66866587 487.33079751 -134.66344114 497.47560565 -134.64893041 507.62043844 C-134.64168927 512.79425929 -134.6376072 517.96803017 -134.64217377 523.14185524 C-134.64625291 527.87853071 -134.64107694 532.61510302 -134.62854769 537.35176285 C-134.62562243 539.06387317 -134.62604881 540.77599324 -134.63019077 542.48810105 C-134.64814681 550.65214869 -134.59050128 558.32821106 -132.36338806 566.25396729 C-131.96572741 568.52448134 -131.56983796 570.79530645 -131.17588806 573.06646729 C-124.54999679 606.09653526 -105.57040922 634.79947058 -77.66416931 653.87261963 C-52.64987287 670.39271806 -25.26074937 677.59231356 4.55511475 677.50793457 C6.34367064 677.51024281 8.13222559 677.51342176 9.92077857 677.51738906 C14.80496512 677.52569616 19.68907297 677.5216304 24.57325971 677.51541662 C29.85291206 677.51087618 35.13255123 677.51788389 40.41220093 677.52337646 C50.74437538 677.53225606 61.07652073 677.53035457 71.40869632 677.52455118 C79.81117119 677.52002784 88.21363792 677.51942471 96.61611366 677.52159882 C97.81366206 677.52190528 99.01121046 677.52221175 100.2450482 677.5225275 C102.6781831 677.52316698 105.11131799 677.52381541 107.54445288 677.52447268 C130.34627029 677.5301721 153.1480716 677.52362482 175.94988636 677.51287195 C195.48926845 677.50394252 215.02862676 677.50548423 234.56800842 677.51470947 C257.28248654 677.52542885 279.99695055 677.52961679 302.71143085 677.52348495 C305.13696436 677.52284788 307.56249787 677.52221914 309.98803139 677.52159882 C311.18128758 677.52129026 312.37454378 677.52098171 313.60395926 677.52066381 C321.9879059 677.51894145 330.37184355 677.5218422 338.7557888 677.52655792 C348.98551995 677.53218555 359.21522043 677.53061112 369.4449481 677.51999643 C374.65829651 677.5147641 379.87159391 677.51264103 385.08494186 677.51929474 C389.86874379 677.52530752 394.65244803 677.52189233 399.43624125 677.51133963 C401.15554146 677.50912791 402.87485013 677.51019093 404.59414478 677.51509121 C443.946633 677.61853989 479.60765457 666.50627403 508.07411194 638.25396729 C521.11485639 624.94968166 530.48907064 609.72140645 536.88679463 592.28568977 C537.43345495 590.8044462 537.99779464 589.32969212 538.57246774 587.85908991 C547.51644359 564.44294247 546.21901358 538.81516119 546.14485157 514.16129744 C546.1336024 508.94183173 546.14572954 503.72240792 546.1546936 498.50294495 C546.16853239 488.31589484 546.16114068 478.12896978 546.14601802 467.94192577 C546.12905044 456.05427753 546.13238145 444.16665952 546.1361121 432.2790029 C546.14197306 411.05945096 546.12788624 389.8399586 546.10316467 368.62042236 C546.07922789 348.07189707 546.07217097 327.52345129 546.08265686 306.97491455 C546.09408534 284.53939424 546.09597394 262.10391058 546.08155876 239.66839069 C546.08003308 237.27309255 546.07851272 234.87779441 546.07699776 232.48249626 C546.07623994 231.30427206 546.07548213 230.12604785 546.07470135 228.91211988 C546.0699751 220.64220381 546.07179799 212.3723042 546.07606316 204.10238838 C546.08100713 194.01827496 546.07492799 183.93423644 546.05516886 173.8501401 C546.04534917 168.71351879 546.04013386 163.57701115 546.04806137 158.44038391 C546.05518794 153.72608037 546.0481531 149.01200481 546.03045774 144.29773103 C546.02645814 142.60504973 546.02733614 140.91234718 546.03397661 139.21967418 C546.1657835 102.43435261 534.54260592 68.00668797 508.76161194 41.35162354 C485.63901364 18.12036641 452.59656919 3.12139942 419.61492883 2.86088546 C417.13447152 2.85728099 414.65431949 2.86836056 412.17388916 2.87974548 C410.35060769 2.8769993 408.5273278 2.87294246 406.70405179 2.86770183 C401.73313425 2.85718764 396.76239845 2.86519654 391.79148901 2.87645233 C386.41507239 2.88533889 381.03867841 2.87683792 375.66226196 2.87059021 C365.14452287 2.86112547 354.62685263 2.86768203 344.10911866 2.87985315 C331.84649605 2.89351171 319.58388961 2.89183183 307.32126132 2.88971982 C285.43116554 2.88653321 263.54110235 2.89817794 241.65101624 2.91778564 C220.43844103 2.93678134 199.22590402 2.94387458 178.01332092 2.93829346 C154.88644656 2.93222662 131.75958898 2.93242983 108.632716 2.94377929 C106.16340117 2.94498651 103.69408633 2.94619249 101.2247715 2.94739723 C99.40260284 2.94830254 99.40260284 2.94830254 97.5436227 2.94922614 C89.0083705 2.95309531 80.47312458 2.95271552 71.93787193 2.95081139 C61.52519741 2.94868249 51.11255622 2.95396572 40.69989105 2.96842494 C35.39336886 2.97563615 30.08689505 2.97977414 24.7803688 2.97518158 C19.91152457 2.97107054 15.04277972 2.97636781 10.17395047 2.98880766 C8.42375601 2.99170761 6.67355201 2.99134428 4.92336013 2.98716458 C-10.79502106 2.9530697 -26.36535092 3.73106138 -41.48838806 8.37896729 Z " fill="#C7C6C5" transform="translate(167.36338806152344,30.74603271484375)"/>
<path d="M0 0 C1.7948506 0.00056519 3.58970167 0.00024546 5.384552 -0.00088501 C10.22257131 -0.00145533 15.06049005 0.01024667 19.89848614 0.02426291 C24.96733264 0.03682411 30.03618183 0.03794499 35.1050415 0.04031372 C44.68822469 0.04651272 54.27136186 0.06290203 63.85452485 0.0830127 C74.77115487 0.10542105 85.68778717 0.11637751 96.60443449 0.12640357 C119.04653645 0.14726975 141.48859767 0.18241481 163.93066406 0.22705078 C163.93066406 0.55705078 163.93066406 0.88705078 163.93066406 1.22705078 C105.19066406 1.55705078 46.45066406 1.88705078 -14.06933594 2.22705078 C130.47066406 2.22705078 275.01066406 2.22705078 423.93066406 2.22705078 C423.93066406 2.55705078 423.93066406 2.88705078 423.93066406 3.22705078 C423.01705223 3.22840731 422.10344039 3.22976384 421.16214335 3.23116148 C366.97492456 3.31186862 312.78773128 3.40284656 258.60055242 3.50710239 C252.08949602 3.51962077 245.57843947 3.53205362 239.06738281 3.54443359 C237.12308906 3.54813258 237.12308906 3.54813258 235.13951664 3.5519063 C214.17103871 3.59159472 193.20255542 3.62435937 172.23406191 3.6545506 C150.70722269 3.68570042 129.18040616 3.72432487 107.65359247 3.76984084 C94.37794446 3.7976765 81.10231298 3.81973083 67.82664369 3.83431329 C58.71435358 3.84488191 49.60209556 3.86273229 40.48982967 3.88621782 C35.23809971 3.89954118 29.98641459 3.90974129 24.73466682 3.91126442 C19.91517664 3.91273349 15.09579419 3.92346101 10.27633719 3.94118519 C8.54386763 3.94598779 6.81138498 3.94755339 5.07891019 3.94532959 C-10.58898264 3.92853732 -26.12127034 4.7195031 -41.19433594 9.35205078 C-42.20641113 9.65554443 -43.21848633 9.95903809 -44.26123047 10.27172852 C-53.07233471 13.0214369 -61.06412612 16.66865826 -69.06933594 21.22705078 C-70.019375 21.75298828 -70.96941406 22.27892578 -71.94824219 22.82080078 C-101.47705647 39.77169264 -120.11089795 68.21013263 -129.3190037 100.39201999 C-134.85580697 121.31209646 -133.49691459 143.75748203 -133.4468509 165.20265722 C-133.43791307 170.45674209 -133.44647938 175.71080476 -133.45271301 180.96488953 C-133.46214507 191.22317252 -133.45565211 201.4813846 -133.44345007 211.73966227 C-133.42976068 223.69757789 -133.43147379 235.65547704 -133.4335834 247.61339851 C-133.43676461 268.94589344 -133.42515182 290.27835485 -133.40551758 311.61083984 C-133.38648359 332.2967226 -133.37943984 352.98256614 -133.38500977 373.66845703 C-133.39106766 396.23313368 -133.39089286 418.79779314 -133.37952393 441.36246836 C-133.3783167 443.76774446 -133.37711071 446.17302056 -133.37590599 448.57829666 C-133.37530245 449.76157706 -133.37469891 450.94485746 -133.37407709 452.16399484 C-133.37020054 460.49567806 -133.3705904 468.82735486 -133.37249184 477.15903854 C-133.37461375 487.303881 -133.36938902 497.44868915 -133.35487828 507.59352194 C-133.34763715 512.76734279 -133.34355508 517.94111366 -133.34812164 523.11493874 C-133.35220079 527.85161421 -133.34702482 532.58818651 -133.33449557 537.32484634 C-133.33157031 539.03695667 -133.33199669 540.74907673 -133.33613864 542.46118455 C-133.35409372 550.62479719 -133.29966926 558.30259146 -131.06933594 566.22705078 C-130.60595932 568.66359707 -130.14738819 571.10106368 -129.69433594 573.53955078 C-128.73882052 578.45011196 -127.5292753 583.02766571 -125.81933594 587.72705078 C-124.13785996 592.44027889 -123.75456887 595.40623818 -125.06933594 600.22705078 C-127.9338713 597.36251542 -128.7619223 593.87030112 -130.00683594 590.10205078 C-130.27262451 589.30033447 -130.53841309 588.49861816 -130.81225586 587.67260742 C-136.06069072 571.31892862 -137.2200386 554.90589211 -137.20304871 537.8453064 C-137.20491835 536.06631504 -137.20721967 534.2873241 -137.20991403 532.5083338 C-137.21601952 527.63214257 -137.21589991 522.75596851 -137.21471965 517.87977433 C-137.21451533 512.61579007 -137.22003747 507.35181129 -137.22477722 502.08782959 C-137.23307768 491.77884861 -137.2358318 481.46987335 -137.2363896 471.16088931 C-137.23686509 462.77879421 -137.23892147 454.39670099 -137.24209023 446.01460648 C-137.25089547 422.23795153 -137.25550985 398.46130109 -137.25475975 374.68464451 C-137.2547198 373.4032919 -137.25467984 372.12193929 -137.25463867 370.80175781 C-137.25459779 369.5188364 -137.25455691 368.23591499 -137.25451479 366.91411717 C-137.25410845 346.12846595 -137.26367532 325.34283286 -137.27777704 304.55718689 C-137.29214989 283.20298391 -137.29904671 261.84878976 -137.29818326 240.49458182 C-137.29785159 228.51056441 -137.30058572 216.526566 -137.31136131 204.54255295 C-137.3204783 194.33789449 -137.32263174 184.13326364 -137.31585189 173.92860286 C-137.31259263 168.72577811 -137.31250849 163.52300629 -137.32120514 158.32018661 C-137.32909744 153.54933821 -137.32761095 148.77858448 -137.31892101 144.00773831 C-137.317392 142.28971639 -137.31917934 140.57168732 -137.32478108 138.85367386 C-137.44389333 99.70289181 -125.38995878 66.12383545 -97.88183594 37.72705078 C-71.18082846 11.65823986 -37.02019953 -0.16450157 0 0 Z " fill="#C3BFCA" transform="translate(167.0693359375,30.77294921875)"/>
<path d="M0 0 C1.7948506 0.00056519 3.58970167 0.00024546 5.384552 -0.00088501 C10.22257131 -0.00145533 15.06049005 0.01024667 19.89848614 0.02426291 C24.96733264 0.03682411 30.03618183 0.03794499 35.1050415 0.04031372 C44.68822469 0.04651272 54.27136186 0.06290203 63.85452485 0.0830127 C74.77115487 0.10542105 85.68778717 0.11637751 96.60443449 0.12640357 C119.04653645 0.14726975 141.48859767 0.18241481 163.93066406 0.22705078 C163.93066406 0.55705078 163.93066406 0.88705078 163.93066406 1.22705078 C105.19066406 1.55705078 46.45066406 1.88705078 -14.06933594 2.22705078 C130.47066406 2.22705078 275.01066406 2.22705078 423.93066406 2.22705078 C423.93066406 2.55705078 423.93066406 2.88705078 423.93066406 3.22705078 C423.01705223 3.22840731 422.10344039 3.22976384 421.16214335 3.23116148 C366.97492456 3.31186862 312.78773128 3.40284656 258.60055242 3.50710239 C252.08949602 3.51962077 245.57843947 3.53205362 239.06738281 3.54443359 C237.12308906 3.54813258 237.12308906 3.54813258 235.13951664 3.5519063 C214.17103871 3.59159472 193.20255542 3.62435937 172.23406191 3.6545506 C150.70722269 3.68570042 129.18040616 3.72432487 107.65359247 3.76984084 C94.37794446 3.7976765 81.10231298 3.81973083 67.82664369 3.83431329 C58.71435358 3.84488191 49.60209556 3.86273229 40.48982967 3.88621782 C35.23809971 3.89954118 29.98641459 3.90974129 24.73466682 3.91126442 C19.91517664 3.91273349 15.09579419 3.92346101 10.27633719 3.94118519 C8.54386763 3.94598779 6.81138498 3.94755339 5.07891019 3.94532959 C-10.58898264 3.92853732 -26.12127034 4.7195031 -41.19433594 9.35205078 C-42.20641113 9.65554443 -43.21848633 9.95903809 -44.26123047 10.27172852 C-53.07233471 13.0214369 -61.06412612 16.66865826 -69.06933594 21.22705078 C-70.019375 21.75298828 -70.96941406 22.27892578 -71.94824219 22.82080078 C-95.73807871 36.47725655 -110.05436009 56.89229844 -123.06933594 80.22705078 C-124.05933594 80.22705078 -125.04933594 80.22705078 -126.06933594 80.22705078 C-118.57789368 53.78666633 -94.32177208 30.85330586 -71.38183594 16.97705078 C-49.3414444 4.91907873 -24.89822885 -0.11063683 0 0 Z " fill="#B6AAD3" transform="translate(167.0693359375,30.77294921875)"/>
<path d="M0 0 C0.66 0 1.32 0 2 0 C2.74443359 1.54107422 2.74443359 1.54107422 3.50390625 3.11328125 C10.20175 16.84311286 17.83240129 28.60318413 28 40 C28.89332031 41.00353516 28.89332031 41.00353516 29.8046875 42.02734375 C45.33713047 58.44845883 66.8121187 68.86038714 88.1875 75.1875 C88.97535889 75.42557373 89.76321777 75.66364746 90.57495117 75.90893555 C105.64528882 80.16214292 120.8717351 81.44839268 136.45744324 81.39872742 C138.23101056 81.40418356 140.00457426 81.41094196 141.77813226 81.41886932 C146.59231851 81.43670424 151.40634904 81.43636126 156.22056043 81.43273985 C161.43434222 81.43211115 166.6480739 81.44878111 171.86183167 81.46325684 C180.8753364 81.48595839 189.8888027 81.4979133 198.90233421 81.50238609 C211.93407496 81.50886866 224.96574648 81.53184293 237.99745921 81.55872939 C259.14502489 81.60191732 280.29258764 81.63192964 301.44018555 81.65356445 C321.97242674 81.67459816 342.504644 81.70189408 363.03686523 81.73754883 C364.93806779 81.74084707 364.93806779 81.74084707 366.87767848 81.74421193 C373.23675096 81.75528218 379.59582322 81.76647488 385.95489538 81.77772844 C438.63657575 81.87080027 491.31826967 81.94245064 544 82 C544 82.33 544 82.66 544 83 C488.27003179 83.09162818 432.54007111 83.16207561 376.81004233 83.20426132 C370.22516807 83.20926393 363.64029396 83.21444124 357.05541992 83.21972656 C355.74453332 83.2207758 354.43364672 83.22182505 353.08303628 83.22290608 C331.87917561 83.24029405 310.67535848 83.27182288 289.47152361 83.30861118 C267.70174568 83.34606536 245.9319905 83.36824532 224.16218168 83.37635398 C210.73754042 83.38183245 197.31302225 83.39911309 183.88841889 83.43166587 C174.67287171 83.45286903 165.45738782 83.45918693 156.24181803 83.45400551 C150.9311561 83.45145276 145.62070872 83.45526513 140.3100853 83.4768219 C135.43558087 83.49646254 130.56143277 83.49715789 125.68691102 83.48359558 C123.9355679 83.48192243 122.18420141 83.48684718 120.43290343 83.49953273 C94.33113586 83.67740636 66.10925279 76.28001081 45.640625 59.2890625 C43.95347662 57.90219092 43.95347662 57.90219092 41.7109375 56.66796875 C30.99986459 50.07772649 17.09212272 38.27636817 13 26 C12.34 26 11.68 26 11 26 C9.63671875 23.96484375 9.63671875 23.96484375 8 21 C7.67338379 20.43168457 7.34676758 19.86336914 7.01025391 19.27783203 C5.92384369 17.38353957 4.86684076 15.4748034 3.8125 13.5625 C3.26045898 12.59860352 3.26045898 12.59860352 2.69726562 11.61523438 C0.48365035 7.56994487 -0.44635509 4.73429084 0 0 Z " fill="#D1D4C0" transform="translate(42,627)"/>
<path d="M0 0 C0.99 0.495 0.99 0.495 2 1 C1.36191406 1.32613281 0.72382812 1.65226562 0.06640625 1.98828125 C-0.75988281 2.42527344 -1.58617187 2.86226562 -2.4375 3.3125 C-3.26121094 3.74175781 -4.08492187 4.17101563 -4.93359375 4.61328125 C-7.30647644 5.90020887 -7.30647644 5.90020887 -8 9 C-9.96875 10.359375 -9.96875 10.359375 -12.5 11.75 C-35.60731343 25.12274309 -49.34176603 45.30485571 -62 68 C-62.99 68 -63.98 68 -65 68 C-57.46649467 41.41115766 -32.79151744 17.74990137 -9.3125 4.375 C-6.19869392 2.64706684 -3.37537848 1.12512616 0 0 Z " fill="#BBBABA" transform="translate(106,43)"/>
<path d="M0 0 C5.65696627 0.50495559 9.68039909 2.09368304 14.6875 4.6875 C29.36121865 11.90576085 44.89030361 15.62110701 61 18 C61 18.99 61 19.98 61 21 C39.7954949 21.62649674 18.87916981 12.7317946 1 2 C0.67 1.34 0.34 0.68 0 0 Z " fill="#C1BFC0" transform="translate(93,689)"/>
<path d="M0 0 C0.33 0 0.66 0 1 0 C1.15855469 1.19753906 1.31710938 2.39507813 1.48046875 3.62890625 C2.81552043 13.11521186 4.59542897 21.77689429 8.109375 30.703125 C9.13658263 34.50559534 8.79606505 37.17500451 8 41 C1.26848787 34.26848787 -0.333793 21.29265791 -0.41748047 12.2277832 C-0.35667841 8.14461028 -0.217175 4.07806397 0 0 Z " fill="#B7B3C7" transform="translate(34,590)"/>
<path d="M0 0 C10.20585188 0.17596296 20.65895247 4.10789686 30 8 C26.23219064 10.22225563 24.07526456 9.85952624 19.84375 8.7734375 C18.43609375 8.39058594 18.43609375 8.39058594 17 8 C15.12828125 7.52433594 15.12828125 7.52433594 13.21875 7.0390625 C1.67304322 4.07244756 1.67304322 4.07244756 -2 2 C-1.34 1.34 -0.68 0.68 0 0 Z " fill="#BBB7C1" transform="translate(606,33)"/>
<path d="M0 0 C2.88300095 2.88300095 3.20418003 6.32669194 4.0625 10.1875 C4.23587891 10.93064453 4.40925781 11.67378906 4.58789062 12.43945312 C6.03114026 18.74883178 7.15151195 24.9396277 7.0625 31.4375 C7.05347656 32.30246094 7.04445313 33.16742188 7.03515625 34.05859375 C7.02355469 34.69925781 7.01195312 35.33992188 7 36 C4 34 4 34 3.41577148 32.13989258 C3.31852783 31.39892334 3.22128418 30.6579541 3.12109375 29.89453125 C3.00443359 29.07533203 2.88777344 28.25613281 2.76757812 27.41210938 C2.65865234 26.55423828 2.54972656 25.69636719 2.4375 24.8125 C1.8109072 20.15423008 1.19947876 15.6873268 -0.11328125 11.1640625 C-1.29396763 6.9510406 -0.74676268 4.2565473 0 0 Z " fill="#C1BFC2" transform="translate(708,120)"/>
<path d="M0 0 C7.90500646 5.42500444 14.34012762 12.15738722 21 19 C19.02 19.99 19.02 19.99 17 21 C16.63390625 20.53851563 16.2678125 20.07703125 15.890625 19.6015625 C10.59190655 13.21786837 4.44538142 8.16477198 -2 3 C-1.34 2.67 -0.68 2.34 0 2 C0 1.34 0 0.68 0 0 Z " fill="#B8B6BA" transform="translate(664,58)"/>
<path d="M0 0 C0.99 0.33 1.98 0.66 3 1 C0.54976242 3.50804718 -1.91147598 6.0050076 -4.375 8.5 C-5.42300781 9.57314453 -5.42300781 9.57314453 -6.4921875 10.66796875 C-7.1625 11.34472656 -7.8328125 12.02148438 -8.5234375 12.71875 C-9.14138184 13.34716797 -9.75932617 13.97558594 -10.39599609 14.62304688 C-12 16 -12 16 -14 16 C-14.66 17.32 -15.32 18.64 -16 20 C-16.66 20 -17.32 20 -18 20 C-16.29958967 15.72798145 -13.22054634 12.73718908 -10.125 9.4375 C-9.59519531 8.86064453 -9.06539062 8.28378906 -8.51953125 7.68945312 C-2.93743866 1.68489447 -2.93743866 1.68489447 0 0 Z " fill="#6E43F6" transform="translate(77,66)"/>
<path d="M0 0 C1.32 0 2.64 0 4 0 C4 0.99 4 1.98 4 3 C-0.22222222 6 -0.22222222 6 -3 6 C-3 6.66 -3 7.32 -3 8 C-5.97 9.65 -8.94 11.3 -12 13 C-12.33 11.68 -12.66 10.36 -13 9 C-11.71802734 8.15115234 -11.71802734 8.15115234 -10.41015625 7.28515625 C-9.2942305 6.54433159 -8.17834728 5.80344286 -7.0625 5.0625 C-6.49853516 4.68931641 -5.93457031 4.31613281 -5.35351562 3.93164062 C-2.53966389 2.14034283 -2.53966389 2.14034283 0 0 Z " fill="#CAC8CC" transform="translate(660,681)"/>
<path d="M0 0 C3.45462112 0.25589786 4.27381547 1.28626163 6.75 3.875 C9 7 9 7 9 10 C9.66 10 10.32 10 11 10 C12.66670026 13.52948291 13.13583456 15.28272326 12 19 C11.30132813 18.01257813 10.60265625 17.02515625 9.8828125 16.0078125 C8.96364202 14.7134704 8.04436567 13.41920347 7.125 12.125 C6.66480469 11.47402344 6.20460938 10.82304688 5.73046875 10.15234375 C5.28574219 9.52714844 4.84101562 8.90195313 4.3828125 8.2578125 C3.97434082 7.6817627 3.56586914 7.10571289 3.14501953 6.51220703 C1.93897192 4.84771607 1.93897192 4.84771607 0 3 C0 2.01 0 1.02 0 0 Z " fill="#C3C2C1" transform="translate(682,77)"/>
<path d="M0 0 C4.14826991 0.57836456 6.74539916 2.86082085 10 5.375 C11.03125 6.16648437 12.0625 6.95796875 13.125 7.7734375 C14.07375 8.50820313 15.0225 9.24296875 16 10 C17.33122845 11.00280038 18.66358898 12.00411679 20 13 C13.2961615 12.71473028 9.32561965 9.89100506 4 6 C3.01 5.34 2.02 4.68 1 4 C0.3125 1.875 0.3125 1.875 0 0 Z " fill="#C9C8C4" transform="translate(77,676)"/>
<path d="M0 0 C0.66 0 1.32 0 2 0 C2.36696071 2.81134364 2.71876381 5.62329855 3.0625 8.4375 C3.16626953 9.22060547 3.27003906 10.00371094 3.37695312 10.81054688 C4.04649532 16.42084871 3.80093874 21.40463074 3 27 C2.67 27 2.34 27 2 27 C0.09572892 17.86970027 -0.22823248 9.28145408 0 0 Z " fill="#CBCCC5" transform="translate(31,580)"/>
<path d="M0 0 C-1.31275643 2.62551287 -2.3243582 2.69506505 -5.0625 3.625 C-11.18472705 5.55218753 -16.73174231 5.56706442 -23 4 C-23 3.67 -23 3.34 -23 3 C-20.29273634 2.4935186 -17.58442876 1.994649 -14.875 1.5 C-13.73417969 1.28537109 -13.73417969 1.28537109 -12.5703125 1.06640625 C-8.31957086 0.29687544 -4.34140803 -0.16644376 0 0 Z " fill="#C9C9C3" transform="translate(612,705)"/>
<path d="M0 0 C2.42705028 2.23487914 4.05926167 4.5096917 5.6875 7.375 C6.34298828 8.50035156 6.34298828 8.50035156 7.01171875 9.6484375 C8.11599474 12.27600329 8.18446068 14.17825015 8 17 C7.34 17.33 6.68 17.66 6 18 C2.63438409 11.9394075 0.38669459 6.96050253 0 0 Z " fill="#BFBFBE" transform="translate(694,90)"/>
<path d="M0 0 C0.33 0.66 0.66 1.32 1 2 C1.66 2 2.32 2 3 2 C1.58832253 7.26170694 -0.74850232 10.72171358 -4 15 C-4.33 14.34 -4.66 13.68 -5 13 C-5.66 12.67 -6.32 12.34 -7 12 C-6.57847656 11.30132813 -6.15695312 10.60265625 -5.72265625 9.8828125 C-5.17480469 8.97273437 -4.62695312 8.06265625 -4.0625 7.125 C-3.51722656 6.22007812 -2.97195313 5.31515625 -2.41015625 4.3828125 C-1.56101983 2.94798364 -0.74562276 1.49124552 0 0 Z " fill="#B6B5B7" transform="translate(698,636)"/>
<path d="M0 0 C0.66 0.33 1.32 0.66 2 1 C1.36191406 1.32613281 0.72382812 1.65226562 0.06640625 1.98828125 C-0.75988281 2.42527344 -1.58617188 2.86226562 -2.4375 3.3125 C-3.26121094 3.74175781 -4.08492187 4.17101563 -4.93359375 4.61328125 C-7.30647644 5.90020887 -7.30647644 5.90020887 -8 9 C-10.66083969 10.99396257 -13.61242325 13 -17 13 C-16.03452615 9.52189546 -15.24485685 8.1789745 -12.28515625 6.015625 C-11.22167969 5.43296875 -10.15820312 4.8503125 -9.0625 4.25 C-7.47115234 3.36054687 -7.47115234 3.36054687 -5.84765625 2.453125 C-3 1 -3 1 0 0 Z " fill="#B7B7B6" transform="translate(106,43)"/>
<path d="M0 0 C0.66 0 1.32 0 2 0 C2.33 0.99 2.66 1.98 3 3 C1.34765625 5.48046875 1.34765625 5.48046875 -0.9375 8.1875 C-1.68902344 9.08855469 -2.44054687 9.98960937 -3.21484375 10.91796875 C-3.80394531 11.60503906 -4.39304687 12.29210937 -5 13 C-5.66 12.67 -6.32 12.34 -7 12 C-6.38271885 8.61638481 -5.13020282 6.47997439 -3.0625 3.75 C-2.53785156 3.04359375 -2.01320313 2.3371875 -1.47265625 1.609375 C-0.74369141 0.81273437 -0.74369141 0.81273437 0 0 Z " fill="#CDCBCC" transform="translate(691,649)"/>
<path d="M0 0 C2.99220268 1.36370299 5.29026529 2.94908083 7.75 5.125 C8.67039062 5.93324219 8.67039062 5.93324219 9.609375 6.7578125 C10.06828125 7.16773438 10.5271875 7.57765625 11 8 C10.34 9.32 9.68 10.64 9 12 C5.7 9.03 2.4 6.06 -1 3 C-0.67 2.01 -0.34 1.02 0 0 Z " fill="#BCBDB8" transform="translate(68,667)"/>
<path d="M0 0 C3 2 3 2 3.6875 5 C4.17925795 9.6520302 4.08458905 14.32880462 4 19 C1 17 1 17 0.3125 14 C-0.17925795 9.3479698 -0.08458905 4.67119538 0 0 Z " fill="#C9C8C9" transform="translate(711,137)"/>
<path d="M0 0 C0.66 0 1.32 0 2 0 C0.58707905 4.8274799 -1.42974154 8.7162359 -4 13 C-4.99 13 -5.98 13 -7 13 C-6.52269162 11.5410574 -6.04308958 10.08286504 -5.5625 8.625 C-5.29566406 7.81289062 -5.02882812 7.00078125 -4.75390625 6.1640625 C-4 4 -4 4 -3 2 C-2.01 2 -1.02 2 0 2 C0 1.34 0 0.68 0 0 Z " fill="#B2B2B2" transform="translate(48,98)"/>
<path d="M0 0 C3.78080393 1.26026798 4.77295425 2.93546534 7.1875 6.0625 C7.90292969 6.98160156 8.61835937 7.90070312 9.35546875 8.84765625 C10.16951172 9.91306641 10.16951172 9.91306641 11 11 C10.01 11.99 9.02 12.98 8 14 C6.65804628 12.23569031 5.32668332 10.4633209 4 8.6875 C3.2575 7.70136719 2.515 6.71523438 1.75 5.69921875 C0 3 0 3 0 0 Z " fill="#C6C2C9" transform="translate(58,655)"/>
<path d="M0 0 C0.66 0.33 1.32 0.66 2 1 C-3.28 6.28 -8.56 11.56 -14 17 C-14.66 16.67 -15.32 16.34 -16 16 C-10.96679794 10.22494276 -5.96260189 4.82082706 0 0 Z " fill="#120A2D" transform="translate(548,163)"/>
<path d="M0 0 C0.33 0 0.66 0 1 0 C1.19818283 6.70518586 1.30844801 12.65176798 -1 19 C-1.33 19 -1.66 19 -2 19 C-3.23852969 11.85234068 -2.85888741 6.68688919 0 0 Z " fill="#C1BDC6" transform="translate(34,135)"/>
<path d="M0 0 C4.62 0 9.24 0 14 0 C14.33 0.99 14.66 1.98 15 3 C9.54230189 3.11138159 4.38490641 2.91657981 -1 2 C-0.67 1.34 -0.34 0.68 0 0 Z " fill="#CCCDC7" transform="translate(592,32)"/>
<path d="M0 0 C0.66 0 1.32 0 2 0 C2.72726052 1.5747294 3.43120422 3.16024279 4.125 4.75 C4.51945312 5.63171875 4.91390625 6.5134375 5.3203125 7.421875 C6 10 6 10 5.1171875 12.328125 C4.74851562 12.87984375 4.37984375 13.4315625 4 14 C1.28608722 9.22642128 -0.56561146 5.65611463 0 0 Z " fill="#C0BEC0" transform="translate(42,627)"/>
<path d="M0 0 C0.99 0.33 1.98 0.66 3 1 C2 4 2 4 -0.3984375 5.421875 C-1.38070312 5.86015625 -2.36296875 6.2984375 -3.375 6.75 C-4.35210937 7.19859375 -5.32921875 7.6471875 -6.3359375 8.109375 C-9 9 -9 9 -12 8 C-11.38511719 7.67386719 -10.77023438 7.34773438 -10.13671875 7.01171875 C-8.92435547 6.35623047 -8.92435547 6.35623047 -7.6875 5.6875 C-6.88699219 5.25824219 -6.08648437 4.82898437 -5.26171875 4.38671875 C-3.16212728 3.09940446 -1.64552279 1.81593292 0 0 Z " fill="#CACAC7" transform="translate(110,41)"/>
<path d="M0 0 C0.33 0 0.66 0 1 0 C0.85890014 2.10448938 0.71195825 4.2085877 0.5625 6.3125 C0.48128906 7.48425781 0.40007813 8.65601563 0.31640625 9.86328125 C0 13 0 13 -1 16 C-1.99 16 -2.98 16 -4 16 C-2.98408579 10.53135543 -1.92908943 5.23609987 0 0 Z " fill="#C5C5C1" transform="translate(710,604)"/>
<path d="M0 0 C-0.99 0.495 -0.99 0.495 -2 1 C-2.33 1.99 -2.66 2.98 -3 4 C-5.875 5.75 -5.875 5.75 -9 7 C-9.99 6.67 -10.98 6.34 -12 6 C-11.34 5.67 -10.68 5.34 -10 5 C-10.33 4.34 -10.66 3.68 -11 3 C-7.14243493 0.84694043 -4.44870215 -0.39253254 0 0 Z " fill="#BDBBBE" transform="translate(650,691)"/>
<path d="M0 0 C0.33 0 0.66 0 1 0 C1.07654536 4.51617599 1.10228696 8.59085217 0 13 C0.66 13 1.32 13 2 13 C1.34 16.63 0.68 20.26 0 24 C-2.17863769 15.28544923 -1.61289985 8.86428432 0 0 Z " fill="#B0A7C8" transform="translate(711,589)"/>
<path d="M0 0 C2 1.375 2 1.375 4 3 C4 3.66 4 4.32 4 5 C4.5775 5.226875 5.155 5.45375 5.75 5.6875 C8.5663661 7.33038023 10.08077114 9.39533227 12 12 C9 12 9 12 6.73828125 10.13671875 C5.93777344 9.32847656 5.13726562 8.52023437 4.3125 7.6875 C3.50425781 6.88699219 2.69601563 6.08648438 1.86328125 5.26171875 C0 3 0 3 0 0 Z " fill="#6E44F6" transform="translate(65,660)"/>
<path d="M0 0 C0.98649168 3.12270749 0.99630937 5.3052426 0.3125 8.5 C0.09013672 9.62921875 0.09013672 9.62921875 -0.13671875 10.78125 C-1.2148732 13.55225328 -2.806257 15.03412033 -5 17 C-4.54619105 15.10307857 -4.08675008 13.20750405 -3.625 11.3125 C-3.36976563 10.25675781 -3.11453125 9.20101563 -2.8515625 8.11328125 C-2.08094511 5.29593234 -1.14501457 2.68331675 0 0 Z " fill="#5632BE" transform="translate(355,281)"/>
<path d="M0 0 C1.95066193 1.61180408 2.92886446 2.43014778 3.2487793 4.99291992 C3.19117432 5.73131104 3.13356934 6.46970215 3.07421875 7.23046875 C3.01943359 8.03291016 2.96464844 8.83535156 2.90820312 9.66210938 C2.83537109 10.49548828 2.76253906 11.32886719 2.6875 12.1875 C2.62626953 13.03248047 2.56503906 13.87746094 2.50195312 14.74804688 C2.34881209 16.83312095 2.17625843 18.91675276 2 21 C1.67 21 1.34 21 1 21 C0.06145994 13.96094956 -0.10808032 7.09727428 0 0 Z " fill="#BDB8CD" transform="translate(31,146)"/>
<path d="M0 0 C0.33 0.99 0.66 1.98 1 3 C-1.64 5.97 -4.28 8.94 -7 12 C-8 10 -8 10 -7.4375 7.6875 C-5.52460533 4.11121866 -3.21751134 2.44810645 0 0 Z " fill="#C4C5BF" transform="translate(64,76)"/>
<path d="M0 0 C0.66 0.33 1.32 0.66 2 1 C2 2.98 2 4.96 2 7 C1.34 7 0.68 7 0 7 C-0.33 8.98 -0.66 10.96 -1 13 C-1.33 13 -1.66 13 -2 13 C-2.05416188 11.39620659 -2.09286638 9.79188594 -2.125 8.1875 C-2.14820313 7.29417969 -2.17140625 6.40085937 -2.1953125 5.48046875 C-2 3 -2 3 0 0 Z " fill="#693FEA" transform="translate(444,405)"/>
<path d="M0 0 C4.24822374 0.47202486 6.19989709 2.96655518 9 6 C8.01 6.66 7.02 7.32 6 8 C1.2 4.55384615 1.2 4.55384615 0.1875 1.75 C0.125625 1.1725 0.06375 0.595 0 0 Z " fill="#CFCECF" transform="translate(77,676)"/>
<path d="M0 0 C0.33 0.99 0.66 1.98 1 3 C-1.97 6.3 -4.94 9.6 -8 13 C-8.66 12.67 -9.32 12.34 -10 12 C-8.70984254 10.37380152 -7.41782303 8.74908017 -6.125 7.125 C-5.04605469 5.76761719 -5.04605469 5.76761719 -3.9453125 4.3828125 C-2 2 -2 2 0 0 Z " fill="#6239D8" transform="translate(554,186)"/>
<path d="M0 0 C1.95881942 3.27920881 2.05559492 3.76173604 1.125 7.75 C0.75375 8.8225 0.3825 9.895 0 11 C-0.66 11 -1.32 11 -2 11 C-2.33 12.98 -2.66 14.96 -3 17 C-4.56393356 13.02623171 -3.36145292 10.18622097 -2.0625 6.25 C-1.68222656 5.07953125 -1.30195313 3.9090625 -0.91015625 2.703125 C-0.60980469 1.81109375 -0.30945313 0.9190625 0 0 Z " fill="#512EB6" transform="translate(505,285)"/>
<path d="M0 0 C2.09350689 3.4019487 2.17942163 6.05272412 2 10 C0.33333333 10 -1.33333333 10 -3 10 C-2.69201674 8.51988629 -2.378482 7.04092675 -2.0625 5.5625 C-1.88847656 4.73878906 -1.71445312 3.91507813 -1.53515625 3.06640625 C-1 1 -1 1 0 0 Z " fill="#5E36CE" transform="translate(368,245)"/>
<path d="M0 0 C0.33 0 0.66 0 1 0 C1.45356243 6.46326465 0.59378942 9.60931587 -3 15 C-4.57156655 11.8568669 -3.11705576 9.634536 -2.0625 6.375 C-1.68222656 5.18648438 -1.30195313 3.99796875 -0.91015625 2.7734375 C-0.60980469 1.85820312 -0.30945313 0.94296875 0 0 Z " fill="#653ADA" transform="translate(347,306)"/>
<path d="M0 0 C3.96 0 7.92 0 12 0 C12 0.99 12 1.98 12 3 C9.36 3 6.72 3 4 3 C4 2.34 4 1.68 4 1 C2.68 0.67 1.36 0.34 0 0 Z " fill="#C5C5C0" transform="translate(142,707)"/>
<path d="M0 0 C0.66 0.33 1.32 0.66 2 1 C0.38113585 2.67262717 -1.2452729 4.33795537 -2.875 6 C-3.77992188 6.928125 -4.68484375 7.85625 -5.6171875 8.8125 C-8 11 -8 11 -10 11 C-8.55218207 7.55571735 -6.72305391 5.63869038 -3.875 3.25 C-3.15054688 2.63640625 -2.42609375 2.0228125 -1.6796875 1.390625 C-0.84824219 0.70226562 -0.84824219 0.70226562 0 0 Z " fill="#10082C" transform="translate(160,422)"/>
<path d="M0 0 C0.66 1.65 1.32 3.3 2 5 C-3.94 3.515 -3.94 3.515 -10 2 C-8.68 1.67 -7.36 1.34 -6 1 C-4 0 -4 0 0 0 Z " fill="#B9B3CA" transform="translate(623,36)"/>
<path d="M0 0 C1.61949011 2.57213134 2.04408751 3.67669159 1.625 6.75 C1.41875 7.4925 1.2125 8.235 1 9 C0.01 9 -0.98 9 -2 9 C-1.125 2.25 -1.125 2.25 0 0 Z " fill="#C4C2C7" transform="translate(701,629)"/>
<path d="M0 0 C0.66 0.33 1.32 0.66 2 1 C-0.31 3.64 -2.62 6.28 -5 9 C-5.99 8.67 -6.98 8.34 -8 8 C-5.36 5.36 -2.72 2.72 0 0 Z " fill="#6238DC" transform="translate(187,434)"/>
<path d="M0 0 C1.38545753 3.84849313 0.91355473 7.06468732 0 11 C-2.05078125 13.21875 -2.05078125 13.21875 -4 15 C-3.52229477 13.06213915 -3.04278429 11.12472326 -2.5625 9.1875 C-2.29566406 8.10855469 -2.02882813 7.02960938 -1.75390625 5.91796875 C-1.23922588 3.9259157 -0.65062825 1.95188476 0 0 Z " fill="#5832C2" transform="translate(500,302)"/>
<path d="M0 0 C3.465 1.98 3.465 1.98 7 4 C6.67 4.66 6.34 5.32 6 6 C1.25 5.125 1.25 5.125 -1 4 C-0.67 2.68 -0.34 1.36 0 0 Z " fill="#CDCDCB" transform="translate(651,49)"/>
<path d="M0 0 C0.66 0 1.32 0 2 0 C2.125 7.75 2.125 7.75 1 10 C0.34 10 -0.32 10 -1 10 C-0.67 6.7 -0.34 3.4 0 0 Z " fill="#CBCCC3" transform="translate(712,592)"/>
<path d="M0 0 C0.33 0.66 0.66 1.32 1 2 C-1.41556126 5.19199167 -3.68003538 7.74716687 -7 10 C-7.66 9.67 -8.32 9.34 -9 9 C-6.03 6.03 -3.06 3.06 0 0 Z " fill="#5A35C9" transform="translate(261,518)"/>
<path d="M0 0 C0.66 0.33 1.32 0.66 2 1 C1.39816251 3.02045442 0.72693904 5.02111039 0 7 C-0.99 7.495 -0.99 7.495 -2 8 C-2.6875 5.6875 -2.6875 5.6875 -3 3 C-1.5625 1.1875 -1.5625 1.1875 0 0 Z " fill="#C9C8C5" transform="translate(42,110)"/>
<path d="M0 0 C0.66 0 1.32 0 2 0 C4.09230769 4.43076923 4.09230769 4.43076923 3.625 7.3125 C3.41875 7.869375 3.2125 8.42625 3 9 C0.9375 6.1875 0.9375 6.1875 -1 3 C-0.67 2.01 -0.34 1.02 0 0 Z " fill="#CECECA" transform="translate(691,87)"/>
<path d="M0 0 C1.65 0.33 3.3 0.66 5 1 C4.67 1.99 4.34 2.98 4 4 C4.66 4.33 5.32 4.66 6 5 C1.545 4.01 1.545 4.01 -3 3 C-2.01 2.67 -1.02 2.34 0 2 C0 1.34 0 0.68 0 0 Z " fill="#B8B7BA" transform="translate(121,700)"/>
<path d="M0 0 C0.66 0.33 1.32 0.66 2 1 C0.02 3.97 -1.96 6.94 -4 10 C-4.33 9.01 -4.66 8.02 -5 7 C-4.00390625 5.17578125 -4.00390625 5.17578125 -2.5625 3.3125 C-2.08941406 2.68988281 -1.61632812 2.06726563 -1.12890625 1.42578125 C-0.75636719 0.95527344 -0.38382813 0.48476563 0 0 Z " fill="#6E43F6" transform="translate(690,647)"/>
<path d="M0 0 C1 4 1 4 0 6 C0.66 6 1.32 6 2 6 C1.67 7.98 1.34 9.96 1 12 C0.67 11.01 0.34 10.02 0 9 C-0.66 9 -1.32 9 -2 9 C-1.34 6.03 -0.68 3.06 0 0 Z " fill="#B1AAC7" transform="translate(706,614)"/>
<path d="M0 0 C0.66 1.32 1.32 2.64 2 4 C1.01 5.485 1.01 5.485 0 7 C-0.66 6.67 -1.32 6.34 -2 6 C-2 6.66 -2 7.32 -2 8 C-2.66 8 -3.32 8 -4 8 C-2.87548273 5.0280615 -1.77706209 2.66559313 0 0 Z " fill="#AFADB1" transform="translate(50,92)"/>
<path d="M0 0 C0 3.20395416 -0.74335022 5.09399739 -2 8 C-5 8 -5 8 -7 7 C-4.69 4.69 -2.38 2.38 0 0 Z " fill="#B3B3B5" transform="translate(68,70)"/>
<path d="M0 0 C0.66 0 1.32 0 2 0 C0.90931332 3.77545388 0.0916909 6.47043472 -3 9 C-2.67 6.69 -2.34 4.38 -2 2 C-1.34 2 -0.68 2 0 2 C0 1.34 0 0.68 0 0 Z " fill="#C9C9C4" transform="translate(48,98)"/>
<path d="M0 0 C3.3 0 6.6 0 10 0 C10.33 0.99 10.66 1.98 11 3 C7.37 2.34 3.74 1.68 0 1 C0 0.67 0 0.34 0 0 Z " fill="#CBCBC0" transform="translate(609,35)"/>
<path d="M0 0 C0.33 0 0.66 0 1 0 C1.08159574 4.16138263 0.98248524 7.9472484 0 12 C-0.33 12 -0.66 12 -1 12 C-1.33 8.7 -1.66 5.4 -2 2 C-1.34 2 -0.68 2 0 2 C0 1.34 0 0.68 0 0 Z " fill="#D2D5C4" transform="translate(33,142)"/>
<path d="M0 0 C0.33 0.66 0.66 1.32 1 2 C1.66 2.33 2.32 2.66 3 3 C1.02 4.32 -0.96 5.64 -3 7 C-2.25 2.25 -2.25 2.25 0 0 Z " fill="#C4C4C2" transform="translate(82,57)"/>
<path d="M0 0 C0.94875 0.04125 1.8975 0.0825 2.875 0.125 C1.225 1.775 -0.425 3.425 -2.125 5.125 C-2.455 4.465 -2.785 3.805 -3.125 3.125 C-3.785 2.795 -4.445 2.465 -5.125 2.125 C-3.125 0.125 -3.125 0.125 0 0 Z " fill="#B1AFB9" transform="translate(667.125,677.875)"/>
<path d="M0 0 C1.65 1.65 3.3 3.3 5 5 C4.01 5.66 3.02 6.32 2 7 C0.4375 4.625 0.4375 4.625 -1 2 C-0.67 1.34 -0.34 0.68 0 0 Z " fill="#D6D6D0" transform="translate(64,662)"/>
<path d="M0 0 C0.66 0.33 1.32 0.66 2 1 C2 3.31 2 5.62 2 8 C1.34 8 0.68 8 0 8 C-0.79953138 4.71303767 -1.09658936 3.28976808 0 0 Z " fill="#C9C8C8" transform="translate(702,104)"/>
<path d="M0 0 C3.68965517 3.68965517 3.68965517 3.68965517 4 7 C3.01 8.485 3.01 8.485 2 10 C1.34 6.7 0.68 3.4 0 0 Z " fill="#B2B1B1" transform="translate(694,90)"/>
<path d="M0 0 C6.52307692 -0.36923077 6.52307692 -0.36923077 8.9375 1.5 C9.288125 1.995 9.63875 2.49 10 3 C8 4 8 4 6.0546875 3.44140625 C5.33539062 3.15136719 4.61609375 2.86132812 3.875 2.5625 C3.15054688 2.27503906 2.42609375 1.98757812 1.6796875 1.69140625 C0.84824219 1.34916016 0.84824219 1.34916016 0 1 C0 0.67 0 0.34 0 0 Z " fill="#5632BB" transform="translate(595,153)"/>
</svg>
